<?xml version="1.0" standalone="no"?><!DOCTYPE svg PUBLIC "-//W3C//DTD SVG 1.1//EN" "http://www.w3.org/Graphics/SVG/1.1/DTD/svg11.dtd"><svg class="icon" height="512" viewBox="0 0 1024 1024" version="1.1" xmlns="http://www.w3.org/2000/svg"><path d="M369.360837 364.498598c24.871457-24.871457 24.870434-65.172325 0-90.042759s-65.172325-24.870434-90.041735 0c-24.856108 24.855084-24.870434 65.171302 0 90.041736 24.869411 24.870434 65.186651 24.856108 90.041735 0.001023zM746.515686 142.191466c24.855084-24.855084 24.856108-65.187675 0.001024-90.043782-24.855084-24.855084-65.187675-24.855084-90.042759 0.001023-24.870434 24.869411-24.855084 65.186651 0 90.041736s65.172325 24.871457 90.041735 0.001023zM137.3149 745.765091c24.862247-24.863271 24.856108-65.186651 0-90.041735-24.855084-24.855084-65.178465-24.864294-90.041735 0-24.863271 24.862247-24.856108 65.186651 0 90.041735s65.179488 24.861224 90.041735 0zM645.064087 990.492862c30.124088-75.438133 76.766384-147.69583 139.681296-210.609719 62.929238-62.931285 135.178749-109.565395 210.625068-139.697669L748.654396 200.314235c-3.13541-4.894474-9.437953-6.682189-14.522761-4.381797-5.275143 2.110057-8.397251 7.722892-7.370875 13.3214l35.765575 188.884928c0.352017 0.703011 0.49835 1.554402 0.674359 2.433422 0.205685 1.202385 0.38067 2.431376 0.556679 3.662413 4.191462 27.347858-1.962701 55.193043-16.999163 78.31874-33.474392 51.000558-102.001115 65.539692-153.296385 32.769334-0.352017-0.352017-0.703011-0.352017-1.054006-0.704034-0.174985-0.174985-0.704035-0.352017-0.877996-0.528026L429.638689 407.951249a12.122085 12.122085 0 0 0-15.256472 1.568728c-4.01443 4.015454-4.732791 10.332323-1.567705 15.256473L518.983553 586.636884c0.177032 0.177032 0.354064 0.704035 0.529049 0.880044 0.352017 0.352017 0.352017 0.703011 0.704035 1.054005 15.243169 23.976064 21.015639 52.90493 15.594163 80.780815-11.373025 59.735499-68.332295 99.163487-127.906111 89.329514-0.688685-0.013303-1.567705-0.189312-2.462075-0.350994-1.201361-0.145309-2.25639-0.496304-3.297093-0.864694l-188.021257-35.57524c-5.582135-1.042749-11.210319 2.094708-13.306051 7.355525-2.286066 5.071506-0.512676 11.387351 4.367471 14.538111l439.878403 246.708892z" fill="#FACB00" /></svg>